<?xml version="1.0" encoding="UTF-8"?>
<svg width="60px" height="51px" viewBox="0 0 60 51" version="1.1" xmlns="http://www.w3.org/2000/svg" xmlns:xlink="http://www.w3.org/1999/xlink">
    <!-- Generator: sketchtool 54.1 (76490) - https://sketchapp.com -->
    <title>1A33A021-2656-48DD-ABCF-8C62D91CD449</title>
    <desc>Created with sketchtool.</desc>
    <defs>
        <polygon id="path-1" points="0 0.148350198 58.8282926 0.148350198 58.8282926 25 0 25"></polygon>
        <polygon id="path-3" points="-0.000347058824 0.148484848 58.8282059 0.148484848 58.8282059 25.0002104 -0.000347058824 25.0002104"></polygon>
    </defs>
    <g id="Page-1" stroke="none" stroke-width="1" fill="none" fill-rule="evenodd">
        <g id="About-LVforUNICEF" transform="translate(-304.000000, -3581.000000)">
            <g id="CTA_BIG" transform="translate(-2.000000, 2587.000000)">
                <g id="001">
                    <g id="Group" transform="translate(152.000000, 0.000000)">
                        <g id="icon_shoes" transform="translate(154.000000, 994.000000)">
                            <g id="Group-3" transform="translate(0.000000, 26.000000)">
                                <mask id="mask-2" fill="white">
                                    <use xlink:href="#path-1"></use>
                                </mask>
                                <g id="Clip-2"></g>
                                <path d="M3.42902794,4.00772727 L3.559175,3.46984848 L5.65020441,5.65924242 C7.62410147,7.71530303 10.9723515,8.29257576 13.6932926,7.04560606 L23.2374103,2.64409091 C23.8274103,2.37060606 24.5284691,2.35090909 25.1375574,2.59106061 L28.6775574,3.97742424 L27.3240279,6.77287879 C27.041175,7.35015152 27.3483221,8.01833333 28.0094691,8.26530303 C28.6706162,8.51227273 29.4358809,8.24409091 29.7187338,7.66681818 L31.0635868,4.90924242 L33.4322632,5.87136364 L32.1394691,8.55318182 C31.8566162,9.13045455 32.1637632,9.79863636 32.8249103,10.0456061 C33.486925,10.2918182 34.2513221,10.0243939 34.534175,9.44712121 L35.8009397,6.76530303 L38.1782926,7.69712121 L36.894175,10.3334848 C36.6113221,10.9107576 36.9184691,11.5789394 37.5796162,11.8259091 C38.2407632,12.0728788 39.0060279,11.804697 39.2888809,11.2274242 L40.5643221,8.62136364 L42.941675,9.55318182 L41.6835868,12.1213636 C41.4007338,12.6986364 41.7078809,13.3668182 42.3690279,13.6137879 C43.0310426,13.8607576 43.7954397,13.5925758 44.0782926,13.015303 L45.3103515,10.4774242 L47.2278515,11.235 C48.3974397,11.6948485 49.6668074,11.9327273 50.9500574,11.9319697 L52.3209397,11.9319697 C54.4770426,11.9319697 56.2253515,13.4584848 56.2253515,15.3410606 L56.2253515,16.0986364 C56.2253515,17.9812121 54.4770426,19.5077273 52.3209397,19.5077273 L3.88020441,19.5077273 L3.73270441,19.0001515 C2.32885147,14.0872727 2.22473382,8.96075758 3.42902794,4.00772727 L3.42902794,4.00772727 Z M0.895498529,3.56833333 C-0.396427941,8.86075758 -0.289707353,14.340303 1.20785147,19.590303 L1.43343971,20.3478788 C1.67638088,21.1918182 2.54576324,21.7819697 3.54182206,21.7804545 L5.46799853,21.7804545 L5.46799853,23.8637879 C5.46799853,24.4910606 6.05018971,25.0001515 6.76946912,25.0001515 C7.48788088,25.0001515 8.07093971,24.4910606 8.07093971,23.8637879 L8.07093971,21.7804545 L11.5415279,21.7804545 L11.5415279,23.8637879 C11.5415279,24.4910606 12.1237191,25.0001515 12.8429985,25.0001515 C13.5614103,25.0001515 14.1444691,24.4910606 14.1444691,23.8637879 L14.1444691,21.7804545 L28.8944691,21.7804545 L28.8944691,23.8637879 C28.8944691,24.4910606 29.4766603,25.0001515 30.1959397,25.0001515 C30.9152191,25.0001515 31.4974103,24.4910606 31.4974103,23.8637879 L31.4974103,21.7804545 L35.8356456,21.7804545 L35.8356456,23.8637879 C35.8356456,24.4910606 36.4178368,25.0001515 37.1371162,25.0001515 C37.8563956,25.0001515 38.4385868,24.4910606 38.4385868,23.8637879 L38.4385868,21.7804545 L42.7768221,21.7804545 L42.7768221,23.8637879 C42.7768221,24.4910606 43.3590132,25.0001515 44.0782926,25.0001515 C44.7975721,25.0001515 45.3797632,24.4910606 45.3797632,23.8637879 L45.3797632,21.7804545 L49.7179985,21.7804545 L49.7179985,23.8637879 C49.7179985,24.4910606 50.3001897,25.0001515 51.0194691,25.0001515 C51.7387485,25.0001515 52.3209397,24.4910606 52.3209397,23.8637879 L52.3209397,21.7804545 C55.9129985,21.7759091 58.8239544,19.235 58.8282926,16.0986364 L58.8282926,15.3410606 C58.8239544,12.204697 55.9129985,9.6630303 52.3209397,9.65924242 L50.9587338,9.65924242 C50.0407632,9.65924242 49.1323368,9.48878788 48.2950574,9.15924242 L26.1874103,0.51530303 C24.8477632,-0.0134848485 23.3024838,0.0312121212 22.0053515,0.636515152 L12.4612338,5.0380303 C10.8283221,5.78424242 8.82145441,5.43727273 7.63711618,4.20469697 L5.034175,1.41681818 C4.71661618,1.07136364 4.26977794,0.833484848 3.77261618,0.745606061 C2.59782206,0.538787879 1.45426324,1.20166667 1.21652794,2.22742424 L0.895498529,3.56833333 Z" id="Fill-1" fill="#000000" mask="url(#mask-2)"></path>
                            </g>
                            <g id="Group-6" transform="translate(1.000000, 0.000000)">
                                <mask id="mask-4" fill="white">
                                    <use xlink:href="#path-3"></use>
                                </mask>
                                <g id="Clip-5"></g>
                                <path d="M55.3989176,21.1408333 L55.2696382,21.6787121 L53.1777412,19.4893182 C51.2038441,17.4332576 47.8564618,16.8559848 45.1346529,18.1029545 L35.5905353,22.5044697 C35.0005353,22.7779545 34.2994765,22.7976515 33.6903882,22.5575 L30.1503882,21.1711364 L31.5039176,18.3756818 C31.7867706,17.7984091 31.4804912,17.1302273 30.8184765,16.8832576 C30.1573294,16.6362879 29.3920647,16.9044697 29.1092118,17.4817424 L27.7643588,20.2393182 L25.3956824,19.277197 L26.6884765,16.5953788 C26.9713294,16.0181061 26.6641824,15.3499242 26.0039029,15.1029545 C25.3418882,14.8559848 24.5766235,15.1241667 24.2937706,15.7014394 L23.0270059,18.3832576 L20.6496529,17.4514394 L21.9337706,14.8150758 C22.2166235,14.237803 21.9094765,13.5696212 21.2491971,13.3226515 C20.5871824,13.0756818 19.8219176,13.3438636 19.5390647,13.9211364 L18.2636235,16.527197 L15.8862706,15.5953788 L17.1443588,13.027197 C17.4272118,12.4499242 17.1200647,11.7817424 16.4597853,11.5347727 C15.7977706,11.287803 15.0325059,11.5559848 14.7496529,12.1332576 L13.5175941,14.6711364 L11.6009618,13.9135606 C10.4305059,13.4537121 9.16113824,13.2158333 7.87788824,13.2165909 L6.50700588,13.2165909 C4.35090294,13.2165909 2.60259412,11.6900758 2.60259412,9.8075 L2.60259412,9.04992424 C2.60259412,7.16734848 4.35090294,5.64083333 6.50700588,5.64083333 L54.9477412,5.64083333 L55.0952412,6.14840909 C56.4999618,11.0605303 56.6040794,16.187803 55.3989176,21.1408333 L55.3989176,21.1408333 Z M57.9324471,21.5802273 C59.2243735,16.287803 59.1176529,10.8082576 57.6209618,5.5575 L57.3953735,4.79992424 C57.1524324,3.95674242 56.28305,3.36659091 55.2861235,3.36810606 L53.3599471,3.36810606 L53.3599471,1.28477273 C53.3599471,0.656742424 52.7777559,0.148409091 52.0584765,0.148409091 C51.3400647,0.148409091 50.7570059,0.656742424 50.7570059,1.28477273 L50.7570059,3.36810606 L47.2864176,3.36810606 L47.2864176,1.28477273 C47.2864176,0.656742424 46.7042265,0.148409091 45.9849471,0.148409091 C45.2665353,0.148409091 44.6834765,0.656742424 44.6834765,1.28477273 L44.6834765,3.36810606 L29.9334765,3.36810606 L29.9334765,1.28477273 C29.9334765,0.656742424 29.3512853,0.148409091 28.6320059,0.148409091 C27.9135941,0.148409091 27.3305353,0.656742424 27.3305353,1.28477273 L27.3305353,3.36810606 L22.9923,3.36810606 L22.9923,1.28477273 C22.9923,0.656742424 22.4101088,0.148409091 21.6908294,0.148409091 C20.9724176,0.148409091 20.3893588,0.656742424 20.3893588,1.28477273 L20.3893588,3.36810606 L16.0511235,3.36810606 L16.0511235,1.28477273 C16.0511235,0.656742424 15.4689324,0.148409091 14.7496529,0.148409091 C14.0312412,0.148409091 13.4481824,0.656742424 13.4481824,1.28477273 L13.4481824,3.36810606 L9.10994706,3.36810606 L9.10994706,1.28477273 C9.10994706,0.656742424 8.52775588,0.148409091 7.80847647,0.148409091 C7.09006471,0.148409091 6.50700588,0.656742424 6.50700588,1.28477273 L6.50700588,3.36810606 C2.91581471,3.37189394 0.00485882353,5.91356061 -0.000347058824,9.04992424 L-0.000347058824,9.8075 C0.00485882353,12.9438636 2.91581471,15.4855303 6.50700588,15.4893182 L7.86921176,15.4893182 C8.78805,15.4893182 9.69647647,15.6597727 10.5337559,15.9893182 L32.6414029,24.6332576 C33.9801824,25.1620455 35.5263294,25.1173485 36.8234618,24.5120455 L46.3675794,20.1105303 C47.9996235,19.3643182 50.0073588,19.7112879 51.1908294,20.9438636 L53.7937706,23.7317424 C54.1121971,24.077197 54.5581676,24.3143182 55.0553294,24.4029545 C56.2301235,24.6097727 57.37455,23.9468939 57.6122853,22.9211364 L57.9324471,21.5802273 Z" id="Fill-4" fill="#000000" mask="url(#mask-4)"></path>
                            </g>
                        </g>
                    </g>
                </g>
            </g>
        </g>
    </g>
</svg>