<?xml version="1.0" encoding="UTF-8"?>
<svg width="63px" height="60px" viewBox="0 0 63 60" version="1.1" xmlns="http://www.w3.org/2000/svg" xmlns:xlink="http://www.w3.org/1999/xlink">
    <!-- Generator: sketchtool 54.1 (76490) - https://sketchapp.com -->
    <title>6D84FB50-4049-4A87-861E-27C5D11CEFCF</title>
    <desc>Created with sketchtool.</desc>
    <defs>
        <polygon id="path-1" points="0.783893015 0 5.18548559 0 5.18548559 10.3428945 0.783893015 10.3428945"></polygon>
        <polygon id="path-3" points="0.000230769231 1.04619231 62.4796154 1.04619231 62.4796154 14.6061923 0.000230769231 14.6061923"></polygon>
        <polygon id="path-5" points="0 60 62.4796154 60 62.4796154 0 0 0"></polygon>
    </defs>
    <g id="Page-1" stroke="none" stroke-width="1" fill="none" fill-rule="evenodd">
        <g id="About-LVforUNICEF" transform="translate(-686.000000, -3576.000000)">
            <g id="CTA_BIG" transform="translate(-2.000000, 2587.000000)">
                <g id="001">
                    <g id="Group" transform="translate(152.000000, 0.000000)">
                        <g id="icon_cake" transform="translate(536.000000, 989.000000)">
                            <path d="M51.183,12.2840769 C50.1353077,11.2363846 48.6849231,10.5856154 47.0822308,10.5856154 C45.4818462,10.5856154 44.0360769,11.2363846 42.9837692,12.2840769 C41.9349231,13.3317692 41.2864615,14.7821538 41.2864615,16.3836923 C41.2864615,17.9852308 41.9349231,19.431 42.9837692,20.4786923 C44.0360769,21.531 45.4818462,22.1771538 47.0822308,22.1771538 C48.6849231,22.1771538 50.1353077,21.531 51.183,20.4786923 C52.2306923,19.431 52.8803077,17.9852308 52.8803077,16.3836923 C52.8803077,14.7821538 52.2306923,13.3317692 51.183,12.2840769 M47.0822308,9.10638462 C49.0910769,9.10638462 50.9106923,9.91984615 52.2260769,11.2363846 C53.5426154,12.5563846 54.3606923,14.3713846 54.3606923,16.3836923 C54.3606923,18.3913846 53.5426154,20.211 52.2260769,21.5275385 C50.9106923,22.8429231 49.0910769,23.6563846 47.0822308,23.6563846 C45.0756923,23.6563846 43.2560769,22.8429231 41.9395385,21.5275385 C40.6241538,20.211 39.8106923,18.3913846 39.8106923,16.3836923 C39.8106923,14.3713846 40.6241538,12.5563846 41.9395385,11.2363846 C43.2560769,9.91984615 45.0756923,9.10638462 47.0822308,9.10638462" id="Fill-1" fill="#000000"></path>
                            <g id="Group-5" transform="translate(42.692308, 0.000000)">
                                <mask id="mask-2" fill="white">
                                    <use xlink:href="#path-1"></use>
                                </mask>
                                <g id="Clip-4"></g>
                                <path d="M5.18353846,9.61361538 C5.18353846,10.0209231 4.84776923,10.3474615 4.44046154,10.3428462 C4.03430769,10.3428462 3.70776923,10.0082308 3.71238462,9.60092308 C3.732,7.52630769 3.55661538,5.98015385 3.117,4.67976923 C2.68892308,3.40592308 1.99661538,2.34553846 0.977769231,1.23438462 C0.702,0.932076923 0.722769231,0.467076923 1.02507692,0.194769231 C1.32161538,-0.0821538462 1.78776923,-0.0613846154 2.06469231,0.240923077 C3.222,1.50207692 4.01353846,2.72169231 4.51661538,4.21015385 C5.007,5.67323077 5.20776923,7.37169231 5.18353846,9.61361538" id="Fill-3" fill="#000000" mask="url(#mask-2)"></path>
                            </g>
                            <g id="Group-8" transform="translate(0.000000, 21.923077)">
                                <mask id="mask-4" fill="white">
                                    <use xlink:href="#path-3"></use>
                                </mask>
                                <g id="Clip-7"></g>
                                <path d="M59.7590769,2.52542308 L2.71984615,2.52542308 C2.38061538,2.52542308 2.07023077,2.6685 1.84407692,2.89003846 C1.61792308,3.11734615 1.47946154,3.42657692 1.47946154,3.76696154 L1.47946154,11.8865769 C1.47946154,12.2304231 1.61792308,12.5396538 1.84407692,12.7623462 C2.07023077,12.9885 2.38061538,13.1304231 2.71984615,13.1304231 C3.05215385,13.1304231 3.54253846,12.7196538 4.03292308,12.3135 C4.72869231,11.7308077 5.42907692,11.1481154 6.28407692,11.1481154 C7.14253846,11.1481154 7.83830769,11.7308077 8.53869231,12.3135 C9.02907692,12.7196538 9.51946154,13.1304231 9.85061538,13.1304231 C10.1817692,13.1304231 10.6721538,12.7196538 11.1625385,12.3135 C11.8583077,11.7308077 12.5586923,11.1481154 13.4136923,11.1481154 C14.2733077,11.1481154 14.9690769,11.7308077 15.6694615,12.3135 C16.1598462,12.7196538 16.6502308,13.1304231 16.9813846,13.1304231 C17.3125385,13.1304231 17.8029231,12.7196538 18.2933077,12.3135 C18.9890769,11.7308077 19.6894615,11.1481154 20.5444615,11.1481154 C21.4040769,11.1481154 22.0998462,11.7308077 22.7990769,12.3135 C23.2906154,12.7196538 23.7798462,13.1304231 24.111,13.1304231 C24.4433077,13.1304231 24.9336923,12.7196538 25.4194615,12.3135 C26.1198462,11.7308077 26.8202308,11.1481154 27.6740769,11.1481154 C28.5302308,11.1481154 29.2306154,11.7308077 29.9298462,12.3135 C30.4156154,12.7196538 30.9071538,13.1304231 31.2383077,13.1304231 C31.5683077,13.1304231 32.0586923,12.7196538 32.5502308,12.3135 C33.2494615,11.7308077 33.9463846,11.1481154 34.8048462,11.1481154 C35.6598462,11.1481154 36.3602308,11.7308077 37.056,12.3135 C37.5463846,12.7196538 38.0367692,13.1304231 38.3679231,13.1304231 C38.6990769,13.1304231 39.1894615,12.7196538 39.681,12.3135 C40.3802308,11.7308077 41.0771538,11.1481154 41.9356154,11.1481154 C42.7906154,11.1481154 43.4898462,11.7308077 44.1867692,12.3135 C44.6771538,12.7196538 45.1675385,13.1304231 45.4986923,13.1304231 C45.8298462,13.1304231 46.3202308,12.7196538 46.8106154,12.3135 C47.511,11.7308077 48.2056154,11.1481154 49.0652308,11.1481154 C49.9213846,11.1481154 50.6206154,11.7308077 51.3175385,12.3135 C51.8067692,12.7196538 52.2971538,13.1304231 52.6283077,13.1304231 C52.9594615,13.1304231 53.4498462,12.7196538 53.9413846,12.3135 C54.6406154,11.7308077 55.3363846,11.1481154 56.196,11.1481154 C57.051,11.1481154 57.7513846,11.7308077 58.4471538,12.3135 C58.9375385,12.7196538 59.4279231,13.1304231 59.7590769,13.1304231 C60.0994615,13.1304231 60.4086923,12.9885 60.636,12.7623462 C60.8621538,12.5396538 60.9994615,12.2304231 60.9994615,11.8865769 L60.9994615,3.76696154 C60.9994615,3.42657692 60.8621538,3.11734615 60.636,2.89003846 C60.4086923,2.6685 60.0994615,2.52542308 59.7590769,2.52542308 M2.71984615,1.04619231 L59.7590769,1.04619231 C60.5090769,1.04619231 61.1886923,1.35196154 61.6790769,1.84696154 C62.1740769,2.33734615 62.4798462,3.02042308 62.4798462,3.76696154 L62.4798462,11.8865769 C62.4798462,12.6365769 62.1740769,13.3161923 61.6790769,13.8100385 C61.1886923,14.3004231 60.5090769,14.6061923 59.7590769,14.6061923 C58.9040769,14.6061923 58.2036923,14.0235 57.5079231,13.4454231 C57.0175385,13.0346538 56.5271538,12.6285 56.196,12.6285 C55.8648462,12.6285 55.3744615,13.0346538 54.8840769,13.4454231 C54.1836923,14.0235 53.4879231,14.6061923 52.6283077,14.6061923 C51.7733077,14.6061923 51.0740769,14.0235 50.3783077,13.4454231 C49.8867692,13.0346538 49.3975385,12.6285 49.0652308,12.6285 C48.7340769,12.6285 48.2448462,13.0346538 47.7544615,13.4454231 C47.0529231,14.0235 46.3583077,14.6061923 45.4986923,14.6061923 C44.6425385,14.6061923 43.9433077,14.0235 43.2475385,13.4454231 C42.7571538,13.0346538 42.2667692,12.6285 41.9356154,12.6285 C41.6044615,12.6285 41.1140769,13.0346538 40.6236923,13.4454231 C39.9233077,14.0235 39.2275385,14.6061923 38.3679231,14.6061923 C37.5129231,14.6061923 36.8125385,14.0235 36.1179231,13.4454231 C35.6263846,13.0346538 35.136,12.6285 34.8048462,12.6285 C34.4736923,12.6285 33.9833077,13.0346538 33.4929231,13.4454231 C32.7936923,14.0235 32.0967692,14.6061923 31.2383077,14.6061923 C30.3833077,14.6061923 29.6829231,14.0235 28.9871538,13.4454231 C28.4967692,13.0346538 28.0052308,12.6285 27.6740769,12.6285 C27.3440769,12.6285 26.8525385,13.0346538 26.3633077,13.4454231 C25.6675385,14.0235 24.9671538,14.6061923 24.111,14.6061923 C23.2525385,14.6061923 22.5567692,14.0235 21.8563846,13.4454231 C21.366,13.0346538 20.8756154,12.6285 20.5444615,12.6285 C20.2133077,12.6285 19.7229231,13.0346538 19.2325385,13.4454231 C18.5367692,14.0235 17.8363846,14.6061923 16.9813846,14.6061923 C16.1217692,14.6061923 15.426,14.0235 14.7256154,13.4454231 C14.2352308,13.0346538 13.7448462,12.6285 13.4136923,12.6285 C13.0825385,12.6285 12.5921538,13.0346538 12.1017692,13.4454231 C11.406,14.0235 10.7056154,14.6061923 9.85061538,14.6061923 C8.991,14.6061923 8.29523077,14.0235 7.596,13.4454231 C7.10561538,13.0346538 6.61407692,12.6285 6.28407692,12.6285 C5.95292308,12.6285 5.46138462,13.0346538 4.97215385,13.4454231 C4.27638462,14.0235 3.576,14.6061923 2.71984615,14.6061923 C1.971,14.6061923 1.29138462,14.3004231 0.796384615,13.8100385 C0.306,13.3161923 0.000230769231,12.6365769 0.000230769231,11.8865769 L0.000230769231,3.76696154 C0.000230769231,3.02042308 0.306,2.33734615 0.796384615,1.84696154 C1.29138462,1.35196154 1.971,1.04619231 2.71984615,1.04619231" id="Fill-6" fill="#000000" mask="url(#mask-4)"></path>
                            </g>
                            <mask id="mask-6" fill="white">
                                <use xlink:href="#path-5"></use>
                            </mask>
                            <g id="Clip-10"></g>
                            <path d="M3.55961538,41.2926923 L58.9211538,41.2926923 L58.9211538,38.5130769 L3.55961538,38.5130769 L3.55961538,41.2926923 Z M2.82115385,37.0326923 L60.4003846,37.0326923 L60.4003846,42.7719231 L2.07923077,42.7719231 L2.07923077,37.0326923 L2.82115385,37.0326923 Z" id="Fill-9" fill="#000000" mask="url(#mask-6)"></path>
                            <path d="M3.55961538,58.5207692 L58.9211538,58.5207692 L58.9211538,42.4742308 L3.55961538,42.4742308 L3.55961538,58.5207692 Z M2.82115385,40.9938462 L60.4003846,40.9938462 L60.4003846,60 L2.07923077,60 L2.07923077,40.9938462 L2.82115385,40.9938462 Z" id="Fill-11" fill="#000000" mask="url(#mask-6)"></path>
                        </g>
                    </g>
                </g>
            </g>
        </g>
    </g>
</svg>