<?xml version="1.0" encoding="UTF-8"?>
<svg width="61px" height="60px" viewBox="0 0 61 60" version="1.1" xmlns="http://www.w3.org/2000/svg" xmlns:xlink="http://www.w3.org/1999/xlink">
    <!-- Generator: sketchtool 54.1 (76490) - https://sketchapp.com -->
    <title>D19678B2-4712-4310-8AE2-18F9F4305C90</title>
    <desc>Created with sketchtool.</desc>
    <defs>
        <polygon id="path-1" points="0 0 60.7331707 0 60.7331707 59.9998537 0 59.9998537"></polygon>
    </defs>
    <g id="Page-1" stroke="none" stroke-width="1" fill="none" fill-rule="evenodd">
        <g id="About-LVforUNICEF" transform="translate(-509.000000, -2185.000000)">
            <g id="difference_you_make" transform="translate(344.000000, 1877.000000)">
                <g id="icon_backpack" transform="translate(165.000000, 308.000000)">
                    <g id="Group-3">
                        <mask id="mask-2" fill="white">
                            <use xlink:href="#path-1"></use>
                        </mask>
                        <g id="Clip-2"></g>
                        <path d="M34.170439,9.43887805 C33.7314146,9.43887805 33.293122,9.36570732 32.9272683,9.36570732 L28.5362927,9.36570732 C27.9509268,9.36570732 27.293122,9.43887805 26.7070244,9.43887805 L26.7070244,7.82912195 C26.7070244,5.99985366 28.170439,4.53643902 30.000439,4.53643902 L30.9516585,4.53643902 C32.7809268,4.53643902 34.2443415,5.99985366 34.2443415,7.82912195 L34.2443415,9.43887805 L34.170439,9.43887805 Z M24.000439,7.17058537 C24.000439,4.0242439 26.5614146,1.46326829 29.7070244,1.46326829 L31.170439,1.46326829 C34.3167805,1.46326829 36.8777561,4.0242439 36.8777561,7.17058537 L36.8777561,9.80473171 C36.4394634,9.73156098 36.0736098,9.65839024 35.6338537,9.58521951 L35.6338537,7.90229268 C35.6338537,5.26814634 33.5126341,3.14619512 30.8777561,3.14619512 L29.9265366,3.14619512 C27.293122,3.14619512 25.170439,5.26814634 25.170439,7.90229268 L25.170439,9.73156098 C24.7321463,9.80473171 24.3662927,9.87790244 23.9265366,10.0242439 L23.9265366,7.17058537 L24.000439,7.17058537 Z M10.5362927,58.6096098 L10.5362927,39.5120488 L10.5362927,38.7803415 L10.5362927,38.0486341 L10.5362927,31.829122 C10.5362927,22.6827805 15.5858049,14.9266829 22.5370244,11.9998537 C22.7558049,11.9266829 23.0484878,11.7803415 23.2687317,11.7071707 C23.4875122,11.634 23.7801951,11.5608293 24.000439,11.4876585 C24.4387317,11.3413171 24.8045854,11.2681463 25.2436098,11.1949756 C25.4638537,11.1218049 25.7558049,11.1218049 25.9753171,11.0486341 C26.195561,10.9754634 26.4875122,10.9754634 26.7070244,10.9754634 C27.293122,10.9022927 27.8777561,10.9022927 28.5362927,10.9022927 L32.9272683,10.9022927 C33.365561,10.9022927 33.8045854,10.9022927 34.170439,10.9754634 C34.3906829,10.9754634 34.6826341,11.0486341 34.9021463,11.0486341 C35.1223902,11.0486341 35.4143415,11.1218049 35.6338537,11.1218049 C36.0736098,11.1949756 36.4394634,11.2681463 36.8777561,11.4144878 C37.0972683,11.4876585 37.3899512,11.5608293 37.6094634,11.634 C37.8289756,11.7071707 38.1216585,11.7803415 38.3411707,11.8535122 C45.5858049,14.5608293 50.8540976,22.536439 50.8540976,31.9022927 L50.8540976,38.1218049 L50.8540976,38.8535122 L50.8540976,39.5852195 L50.8540976,58.6827805 L10.5362927,58.6827805 L10.5362927,58.6096098 Z M1.53629268,45.2925366 C1.53629268,42.0730244 3.51263415,39.5120488 5.92653659,39.5120488 L9.14604878,39.5120488 L9.14604878,58.6096098 L1.53629268,58.6096098 L1.53629268,45.2925366 Z M59.3411707,58.6096098 L52.3175122,58.6096098 L52.3175122,39.5120488 L54.9509268,39.5120488 C57.365561,39.5120488 59.3411707,42.0730244 59.3411707,45.2925366 L59.3411707,58.6096098 Z M54.9509268,38.0486341 L52.3175122,38.0486341 L52.3175122,31.829122 C52.3175122,21.5852195 46.3899512,12.9510732 38.3411707,10.2437561 L38.3411707,7.17058537 C38.3411707,3.21936585 35.1223902,-0.000146341463 31.170439,-0.000146341463 L29.7070244,-0.000146341463 C25.7558049,-0.000146341463 22.5370244,3.21936585 22.5370244,7.17058537 L22.5370244,10.3900976 C14.7070244,13.3169268 9.07287805,21.8047317 9.07287805,31.7559512 L9.07287805,37.9754634 L5.85336585,37.9754634 C2.63385366,37.9754634 -0.000292682927,41.1949756 -0.000292682927,45.2193659 L-0.000292682927,59.9998537 L9.00043902,59.9998537 L52.2436098,59.9998537 L60.7321463,59.9998537 L60.7321463,45.2925366 C60.8045854,41.2681463 58.1711707,38.0486341 54.9509268,38.0486341 L54.9509268,38.0486341 Z" id="Fill-1" fill="#000000" mask="url(#mask-2)"></path>
                    </g>
                    <path d="M38.3413171,14.4879512 C38.1218049,14.4147805 37.829122,14.268439 37.6096098,14.1952683 C37.3900976,14.1220976 37.0974146,14.0489268 36.8779024,13.9757561 C36.438878,13.8294146 36.0730244,13.7562439 35.634,13.6830732 C35.4144878,13.6099024 35.1225366,13.6099024 34.9022927,13.5367317 C34.6827805,13.463561 34.3908293,13.463561 34.1705854,13.463561 C33.659122,13.3903902 33.1461951,13.3903902 32.561561,13.3903902 L28.829122,13.3903902 C28.0974146,13.3903902 27.3657073,13.463561 26.7071707,13.5367317 C26.4876585,13.6099024 26.1949756,13.6099024 25.9754634,13.6830732 C25.7559512,13.7562439 25.4632683,13.7562439 25.2437561,13.8294146 C24.8047317,13.9025854 24.438878,14.0489268 23.9998537,14.1952683 C23.7803415,14.268439 23.4876585,14.4147805 23.2681463,14.4879512 C23.0486341,14.561122 22.7559512,14.7074634 22.536439,14.7806341 C16.6096098,17.6342927 12.3657073,24.4391707 12.3657073,32.4147805 C12.3657073,32.6342927 12.5120488,32.7806341 12.731561,32.7806341 C12.9510732,32.7806341 13.0974146,32.6342927 13.0974146,32.4147805 C13.0974146,24.9513659 16.9754634,18.4391707 22.536439,15.6586829 C22.7559512,15.5123415 23.0486341,15.4391707 23.2681463,15.2928293 C23.4876585,15.2196585 23.7803415,15.0733171 23.9998537,15.0001463 C24.438878,14.8538049 24.8047317,14.7074634 25.2437561,14.6342927 C25.4632683,14.561122 25.7559512,14.4879512 25.9754634,14.4879512 C26.1949756,14.4147805 26.4876585,14.4147805 26.7071707,14.3416098 C27.3657073,14.1952683 28.0974146,14.1952683 28.829122,14.1952683 L32.561561,14.1952683 C33.0730244,14.1952683 33.5852195,14.1952683 34.1705854,14.268439 C34.3908293,14.268439 34.6827805,14.3416098 34.9022927,14.3416098 C35.1225366,14.4147805 35.4144878,14.4147805 35.634,14.4879512 C36.0730244,14.561122 36.438878,14.7074634 36.8779024,14.8538049 C37.0974146,14.9269756 37.3900976,15.0001463 37.6096098,15.1464878 C37.829122,15.2196585 38.1218049,15.366 38.3413171,15.4391707 C44.1949756,18.1464878 48.2932683,24.7318537 48.2932683,32.4879512 C48.2932683,32.7074634 48.438878,32.8538049 48.659122,32.8538049 C48.8779024,32.8538049 49.0249756,32.7074634 49.0249756,32.4879512 C49.0249756,24.2196585 44.5608293,17.1952683 38.3413171,14.4879512" id="Fill-4" fill="#000000"></path>
                    <path d="M28.9756098,20.8535854 L28.9756098,20.7072439 C28.9756098,20.414561 29.1219512,20.1950488 29.2682927,19.9755366 C29.5609756,19.6096829 30,19.3901707 30.4390244,19.3901707 C30.9512195,19.3901707 31.3902439,19.6096829 31.6097561,19.9755366 C31.7560976,20.1950488 31.8292683,20.414561 31.902439,20.7072439 L31.902439,20.8535854 C31.902439,21.0730976 31.8292683,21.2926098 31.7560976,21.4389512 C31.5365854,21.9511463 31.0243902,22.317 30.4390244,22.317 C29.8536585,22.317 29.3414634,21.9511463 29.1219512,21.4389512 C29.0487805,21.2926098 28.9756098,21.0730976 28.9756098,20.8535854 M30.4390244,23.7804146 C31.8292683,23.7804146 33,22.7560244 33.2926829,21.4389512 C33.3658537,21.219439 33.3658537,21.0730976 33.3658537,20.8535854 L33.3658537,20.7072439 C33.3658537,20.4877317 33.2926829,20.1950488 33.2195122,19.9755366 C32.8536585,18.8048049 31.7560976,17.9267561 30.4390244,17.9267561 C29.1219512,17.9267561 28.0243902,18.8048049 27.6585366,19.9755366 C27.5853659,20.1950488 27.5121951,20.4877317 27.5121951,20.7072439 L27.5121951,20.8535854 C27.5121951,21.0730976 27.5121951,21.2926098 27.5853659,21.4389512 C27.8780488,22.7560244 29.0487805,23.7804146 30.4390244,23.7804146" id="Fill-6" fill="#000000"></path>
                    <path d="M17.0489268,35.121878 C17.0489268,34.317 17.7074634,33.6584634 18.5123415,33.6584634 L43.6099024,33.6584634 C44.4140488,33.6584634 45.0733171,34.317 45.0733171,35.121878 L45.0733171,37.8291951 L17.0489268,37.8291951 L17.0489268,35.121878 Z M45.0733171,39.512122 L45.0733171,50.7804146 C45.0733171,51.5852927 44.4140488,52.2438293 43.6099024,52.2438293 L18.5123415,52.2438293 C17.7074634,52.2438293 17.0489268,51.5852927 17.0489268,50.7804146 L17.0489268,39.512122 L17.0489268,39.3657805 L45.0733171,39.3657805 L45.0733171,39.512122 Z M44.4879512,32.3413902 C44.1952683,32.2682195 43.9025854,32.1950488 43.5367317,32.1950488 L18.5123415,32.1950488 C18.1464878,32.1950488 17.8538049,32.2682195 17.561122,32.3413902 C16.3903902,32.7072439 15.5855122,33.8048049 15.5855122,35.121878 L15.5855122,38.0487073 L15.5855122,38.6340732 L15.5855122,38.7804146 L15.5855122,39.512122 L15.5855122,50.7804146 C15.5855122,52.3901707 16.9025854,53.7072439 18.5123415,53.7072439 L43.6099024,53.7072439 C45.2196585,53.7072439 46.5367317,52.3901707 46.5367317,50.7804146 L46.5367317,39.512122 L46.5367317,38.7804146 L46.5367317,38.6340732 L46.5367317,38.0487073 L46.5367317,35.121878 C46.5367317,33.8779756 45.6586829,32.7804146 44.4879512,32.3413902 L44.4879512,32.3413902 Z" id="Fill-8" fill="#000000"></path>
                </g>
            </g>
        </g>
    </g>
</svg>