<?xml version="1.0" encoding="UTF-8"?>
<svg width="60px" height="60px" viewBox="0 0 60 60" version="1.1" xmlns="http://www.w3.org/2000/svg" xmlns:xlink="http://www.w3.org/1999/xlink">
    <!-- Generator: sketchtool 54.1 (76490) - https://sketchapp.com -->
    <title>A3C340D5-DD08-431D-A808-F38D052FFFDD</title>
    <desc>Created with sketchtool.</desc>
    <defs>
        <polygon id="path-1" points="0.71 0.0002 14.71 0.0002 14.71 30 0.71 30"></polygon>
    </defs>
    <g id="Page-1" stroke="none" stroke-width="1" fill="none" fill-rule="evenodd">
        <g id="About-LVforUNICEF" transform="translate(-876.000000, -1995.000000)">
            <g id="difference_you_make" transform="translate(344.000000, 1877.000000)">
                <g id="icon_vaccines" transform="translate(532.000000, 118.000000)">
                    <path d="M12.21,43.6203 L15.8,47.2103 L13.71,49.3003 L10.12,45.7103 L12.21,43.6203 Z M13.71,37.1203 L17,40.4203 L18.42,39.0003 L15.12,35.7103 L17.71,33.1203 L20,35.4203 L21.42,34.0003 L19.12,31.7103 L21.71,29.1203 L25,32.4203 L26.42,31.0003 L23.12,27.7103 L25.71,25.1203 L28,27.4203 L29.42,26.0003 L27.12,23.7103 L29.71,21.1203 L33,24.4203 L34.42,23.0003 L31.12,19.7103 L33.71,17.1203 L36,19.4203 L37.42,18.0003 L35.12,15.7103 L37.71,13.1203 L46.3,21.7103 L19.71,48.3003 L11.12,39.7103 L13.71,37.1203 Z M51.21,4.6203 L54.8,8.2103 L45.21,17.8003 L41.62,14.2103 L51.21,4.6203 Z M1.42,59.4203 L11.21,49.6203 L13,51.4203 C13.389,51.8113 14.022,51.8143 14.414,51.4263 L14.42,51.4203 L17.21,48.6203 L19,50.4203 C19.389,50.8113 20.022,50.8143 20.414,50.4263 L20.42,50.4203 L47.71,23.1203 L50,25.4203 L51.42,24.0003 L48.42,21.0003 L46.62,19.2103 L56.21,9.6203 L58,11.4203 L59.42,10.0003 L49.42,0.0003 L48,1.4203 L49.8,3.2103 L40.21,12.8003 L38.42,11.0003 L35.42,8.0003 L34,9.4203 L36.3,11.7103 L9,39.0003 C8.608,39.3893 8.606,40.0213 8.994,40.4143 L9,40.4203 L10.8,42.2103 L8,45.0003 C7.608,45.3893 7.606,46.0213 7.994,46.4143 L8,46.4203 L9.8,48.2103 L0,58.0003 L1.42,59.4203 Z" id="Fill-1" fill="#000000"></path>
                    <g id="Group-5" transform="translate(45.000000, 29.710000)">
                        <mask id="mask-2" fill="white">
                            <use xlink:href="#path-1"></use>
                        </mask>
                        <g id="Clip-4"></g>
                        <path d="M12.71,28.0002 L2.71,28.0002 L2.71,26.0002 L9.71,26.0002 C10.263,26.0002 10.71,25.5522 10.71,25.0002 L10.71,13.0002 C10.71,12.4472 10.263,12.0002 9.71,12.0002 L2.82,12.0002 C3.105,10.6002 3.974,9.3882 5.21,8.6702 C5.518,8.4922 5.708,8.1652 5.71,7.8102 L5.71,6.0002 L9.71,6.0002 L9.71,7.8102 C9.712,8.1652 9.902,8.4922 10.21,8.6702 C11.757,9.5632 12.71,11.2142 12.71,13.0002 L12.71,28.0002 Z M2.71,20.0002 L2.71,18.0002 L6.71,18.0002 L6.71,16.0002 L2.71,16.0002 L2.71,14.0002 L8.71,14.0002 L8.71,24.0002 L2.71,24.0002 L2.71,22.0002 L6.71,22.0002 L6.71,20.0002 L2.71,20.0002 Z M3.71,4.0002 L11.71,4.0002 L11.71,2.0002 L3.71,2.0002 L3.71,4.0002 Z M11.71,7.2602 L11.71,6.0002 L12.71,6.0002 C13.263,6.0002 13.71,5.5522 13.71,5.0002 L13.71,1.0002 C13.71,0.4482 13.263,0.0002 12.71,0.0002 L2.71,0.0002 C2.157,0.0002 1.71,0.4482 1.71,1.0002 L1.71,5.0002 C1.71,5.5522 2.157,6.0002 2.71,6.0002 L3.71,6.0002 L3.71,7.2602 C1.832,8.5682 0.712,10.7112 0.71,13.0002 L0.71,29.0002 C0.71,29.5522 1.157,30.0002 1.71,30.0002 L13.71,30.0002 C14.263,30.0002 14.71,29.5522 14.71,29.0002 L14.71,13.0002 C14.708,10.7112 13.588,8.5682 11.71,7.2602 L11.71,7.2602 Z" id="Fill-3" fill="#000000" mask="url(#mask-2)"></path>
                    </g>
                </g>
            </g>
        </g>
    </g>
</svg>