<?xml version="1.0" encoding="UTF-8"?>
<svg width="350px" height="32px" viewBox="0 0 350 32" version="1.1" xmlns="http://www.w3.org/2000/svg" xmlns:xlink="http://www.w3.org/1999/xlink">
    <!-- Generator: sketchtool 54.1 (76490) - https://sketchapp.com -->
    <title>7501E78D-3910-4348-AA40-D79D21A5B315</title>
    <desc>Created with sketchtool.</desc>
    <defs>
        <polygon id="path-1" points="0.1906 0.381 132 0.381 132 32 0.1906 32"></polygon>
        <polygon id="path-3" points="0 0.6084 176.7416 0.6084 176.7416 21.4224 0 21.4224"></polygon>
    </defs>
    <g id="Page-1" stroke="none" stroke-width="1" fill="none" fill-rule="evenodd">
        <g id="WorldRun" transform="translate(-150.000000, -42.000000)">
            <g id="HEADER_worldrun" transform="translate(-1.000000, 0.000000)">
                <g id="LOGO_LVFORUNICEF" transform="translate(151.000000, 41.000000)">
                    <g id="Group-3" transform="translate(218.000000, 0.618900)">
                        <mask id="mask-2" fill="white">
                            <use xlink:href="#path-1"></use>
                        </mask>
                        <g id="Clip-2"></g>
                        <path d="M131.9356,11.711 L131.6276,12.063 C130.6186,13.336 129.2126,16.849 129.1686,18.035 L129.1686,18.386 L129.4766,18.211 C131.9796,16.542 132.0676,13.468 131.9796,12.194 L131.9796,11.975 L131.9356,11.711 L131.9356,11.711 Z M83.8046,28.399 L83.8046,12.282 L80.5986,12.282 L80.5986,9.823 L83.8046,9.823 L83.8046,5.827 C83.9366,1.742 86.9666,0.689 89.6016,0.689 C90.4356,0.689 91.2696,0.908 92.1046,1.04 L92.1046,3.982 C91.4896,3.938 90.9186,3.851 90.3486,3.851 C88.3716,3.851 87.1856,4.378 87.3176,6.398 L87.3176,9.823 L91.6216,9.823 L91.6216,12.282 L87.3176,12.282 L87.3176,28.399 L83.8046,28.399 L83.8046,28.399 Z M66.7216,19.792 C66.4576,23.042 67.7756,26.423 71.3766,26.423 C74.0996,26.423 75.5046,25.369 75.8996,22.646 L79.5886,22.646 C79.0186,26.862 75.7686,28.97 71.3326,28.97 C65.3606,28.97 62.9886,24.754 62.9886,19.309 C62.9886,13.863 65.7116,9.34 71.5966,9.34 C77.1296,9.472 79.7646,12.985 79.7646,18.123 L79.7646,19.879 L66.7216,19.792 L66.7216,19.792 Z M76.1196,17.333 C76.2076,14.214 74.8026,11.843 71.3766,11.843 C68.4346,11.843 66.7216,14.302 66.7216,17.333 L76.1196,17.333 Z M57.8066,15.795 C57.6316,13.468 56.5336,11.843 53.9866,11.843 C50.6486,11.843 49.3316,14.741 49.3316,19.133 C49.3316,23.481 50.6486,26.423 53.9866,26.423 C56.3136,26.423 57.7636,24.93 57.9386,22.251 L61.4516,22.251 C61.1446,26.423 58.0706,28.97 53.9426,28.97 C48.0136,28.97 45.6426,24.754 45.6426,19.309 C45.6426,13.863 48.3656,9.34 54.2496,9.34 C58.1586,9.34 61.1006,11.799 61.3196,15.839 L57.8066,15.839 L57.8066,15.795 Z M23.3776,12.545 L23.4656,12.545 C24.6506,10.218 27.2416,9.252 29.1306,9.252 C30.4476,9.252 36.2006,9.603 36.2006,15.576 L36.2006,28.487 L32.6876,28.487 L32.6876,16.717 C32.6876,13.644 31.3706,11.975 28.4276,11.975 C28.4276,11.975 26.4956,11.843 25.0026,13.336 C24.4756,13.863 23.5096,14.653 23.5096,18.342 L23.5096,28.487 L19.9966,28.487 L19.9966,9.779 L23.4656,9.779 L23.3776,12.545 L23.3776,12.545 Z M12.7936,9.779 L16.3076,9.779 L16.3076,28.443 L12.8376,28.443 L12.8376,25.676 L12.7496,25.676 C11.3446,28.004 8.9736,28.97 6.3386,28.97 C2.4296,28.97 0.1906,25.983 0.1906,22.251 L0.1906,9.779 L3.7476,9.779 L3.7476,20.846 C3.7476,24.095 4.4936,26.467 7.8756,26.467 C9.3246,26.467 11.3006,25.72 12.0476,23.788 C12.7056,22.031 12.7496,19.836 12.7496,19.397 L12.7936,9.779 L12.7936,9.779 Z M39.0996,1.567 L43.3146,1.567 L43.3146,5.431 L39.0996,5.431 C39.1436,5.431 39.1436,1.567 39.0996,1.567 L39.0996,1.567 Z M39.4946,28.443 L43.0076,28.443 L43.0076,9.779 L39.4946,9.779 L39.4946,28.443 Z M124.1196,21.724 L123.8116,21.899 C122.7136,22.646 119.6396,25.281 119.4196,26.159 L119.3756,26.379 L119.5956,26.379 C122.9766,26.686 123.7676,24.051 124.0756,22.075 L124.1196,21.899 L124.1196,21.724 L124.1196,21.724 Z M113.1836,28.047 C113.0966,28.091 110.6806,29.365 109.1436,31.341 L109.0556,31.473 L109.1436,31.605 C109.2316,31.736 109.4956,31.912 109.6706,31.956 L109.8026,32 L109.8906,31.912 C111.3836,30.068 113.8866,27.828 116.6096,27.565 C117.0486,28.004 117.3996,28.311 117.9706,28.487 C119.5076,29.014 122.1426,28.75 124.2936,27.872 L124.7776,27.652 L124.2496,27.521 C119.1566,26.159 115.3356,26.994 113.1836,28.047 L113.1836,28.047 Z M129.2126,22.91 L128.8176,22.954 C127.4126,23.173 123.3726,25.457 122.7136,26.379 L122.5386,26.598 L122.8006,26.642 C126.1386,27.213 127.8956,24.974 128.9496,23.217 L129.0376,23.042 L129.2126,22.91 L129.2126,22.91 Z M126.3146,17.684 L126.0946,17.947 C125.3046,18.957 124.3376,22.338 124.2936,23.7 L124.2936,23.963 L124.3376,24.271 L124.5576,24.139 C125.9626,23.261 126.6656,21.943 126.7096,20.318 C126.7096,19.572 126.6226,18.825 126.3586,18.035 L126.3146,17.859 L126.3146,17.684 Z M127.1926,13.775 L127.1046,14.17 C127.0166,14.522 126.9296,15.005 126.9296,15.62 C126.8856,17.333 127.1486,19.44 127.4996,20.099 L127.6316,20.362 L127.8076,20.099 C128.3346,19.353 128.5976,18.562 128.5976,17.684 C128.6416,16.542 128.2036,15.312 127.4126,14.083 L127.3246,13.907 L127.1926,13.775 L127.1926,13.775 Z M127.2366,10.086 L127.2366,10.482 C127.1926,11.799 128.2036,14.653 128.9936,15.752 L129.2126,16.059 L129.3446,15.708 C129.4766,15.356 129.5646,15.005 129.5646,14.653 C129.6966,12.545 128.0716,10.833 127.5876,10.35 L127.4566,10.218 L127.2366,10.086 L127.2366,10.086 Z M126.1386,6.178 L126.2706,6.661 C126.6226,7.935 127.8956,10.174 128.9496,11.096 L129.2126,11.316 L129.2566,10.921 C129.3446,9.164 128.4666,7.671 126.5786,6.485 L126.3586,6.354 L126.1386,6.178 L126.1386,6.178 Z M131.5396,17.289 L131.1896,17.508 C129.5646,18.518 127.0606,21.636 126.5786,22.998 L126.4466,23.349 L126.7976,23.217 C129.3886,22.382 131.1016,19.484 131.4526,17.684 L131.4966,17.464 L131.5396,17.289 L131.5396,17.289 Z M103.2156,27.521 L102.6876,27.652 L103.1716,27.872 C105.2796,28.75 107.9146,28.97 109.4516,28.487 C110.0216,28.311 110.3736,27.96 110.8126,27.565 C113.5356,27.828 116.0386,30.112 117.5316,31.912 L117.6196,32 L117.7506,31.956 C117.9266,31.912 118.1906,31.692 118.2786,31.605 L118.3666,31.473 L118.2786,31.341 C116.7416,29.321 114.3256,28.091 114.2376,28.047 C112.0856,26.994 108.2656,26.159 103.2156,27.521 L103.2156,27.521 Z M98.2966,23.085 L98.3846,23.261 C99.4386,25.018 101.1946,27.301 104.5326,26.686 L104.7956,26.642 L104.6206,26.423 C104.0056,25.501 99.9656,23.217 98.5166,22.998 L98.1216,22.954 L98.2966,23.085 L98.2966,23.085 Z M101.0636,17.859 L101.0196,18.035 C100.7556,18.825 100.6676,19.572 100.6676,20.318 C100.7116,21.943 101.4586,23.261 102.8196,24.139 L103.0396,24.271 L103.0836,23.963 L103.0836,23.7 C103.0396,22.382 102.0296,19.001 101.2826,17.947 L101.0636,17.684 L101.0636,17.859 Z M100.0976,13.907 L100.0096,14.083 C99.1746,15.268 98.7796,16.542 98.8236,17.684 C98.8676,18.518 99.1306,19.353 99.6146,20.099 L99.7896,20.362 L99.9216,20.099 C100.2726,19.44 100.5366,17.289 100.4926,15.62 C100.4926,15.005 100.4046,14.522 100.3166,14.17 L100.2286,13.775 L100.0976,13.907 L100.0976,13.907 Z M100.0096,10.262 L99.8776,10.394 C99.3946,10.877 97.7696,12.589 97.9016,14.697 C97.9016,15.005 97.9896,15.356 98.1216,15.752 L98.2526,16.103 L98.4726,15.795 C99.2626,14.697 100.2726,11.843 100.2286,10.525 L100.2286,10.13 L100.0096,10.262 L100.0096,10.262 Z M101.1506,6.354 L100.9316,6.485 C98.9986,7.671 98.0776,9.12 98.1646,10.877 L98.1646,11.272 L98.4286,11.052 C99.4826,10.174 100.7996,7.935 101.1946,6.705 L101.3266,6.266 L101.1506,6.354 L101.1506,6.354 Z M95.9256,17.508 L95.9696,17.728 C96.3206,19.528 98.0336,22.382 100.6236,23.261 L100.9756,23.393 L100.8436,23.042 C100.3606,21.724 97.8576,18.606 96.2326,17.552 L95.8816,17.333 L95.9256,17.508 L95.9256,17.508 Z M95.4856,11.975 L95.4856,12.194 C95.3986,13.468 95.4416,16.542 97.9896,18.211 L98.2966,18.386 L98.2966,18.035 C98.2526,16.849 96.8916,13.336 95.8376,12.063 L95.5296,11.711 L95.4856,11.975 L95.4856,11.975 Z M96.7156,6.924 L96.6276,7.144 C96.4966,7.451 96.3206,8.11 96.1886,8.988 C96.0136,10.218 96.0576,11.975 97.1546,13.292 L97.2866,13.468 L97.4186,13.644 L97.5936,12.853 C97.7696,11.448 97.5496,8.505 97.0226,7.188 L96.8476,6.749 L96.7156,6.924 L96.7156,6.924 Z M100.0976,3.675 L99.9216,3.851 C99.1746,4.509 97.5066,6.222 97.7696,8.066 L97.8136,8.198 L97.9016,8.549 L98.1216,8.33 C99.1306,7.408 99.9216,5.827 100.2286,3.982 L100.3166,3.455 L100.0976,3.675 L100.0976,3.675 Z M113.7106,0.381 C106.8596,0.381 101.2826,5.959 101.2826,12.809 C101.2826,19.66 106.8596,25.281 113.7106,25.281 C120.5616,25.281 126.1826,19.704 126.1826,12.809 C126.1386,5.959 120.5616,0.381 113.7106,0.381 L113.7106,0.381 Z M123.4156,5.871 C122.7566,6.31 122.0986,6.705 121.3956,7.012 C121.0006,6.178 120.4736,5.387 119.9026,4.685 C120.4296,4.378 120.9136,4.026 121.3516,3.631 C122.1426,4.29 122.8006,5.036 123.4156,5.871 L123.4156,5.871 Z M118.1466,1.742 C119.1566,2.138 120.0786,2.665 120.9566,3.323 C120.5176,3.675 120.0786,3.982 119.5956,4.29 C118.9806,3.587 118.2786,2.928 117.5316,2.401 C117.7506,2.182 117.9706,1.962 118.1466,1.742 L118.1466,1.742 Z M119.1126,4.553 C118.4546,4.904 117.7506,5.212 117.0046,5.431 C116.6976,4.729 116.3456,4.07 115.9506,3.411 C116.3456,3.235 116.7416,3.016 117.0916,2.753 C117.8386,3.279 118.5406,3.894 119.1126,4.553 L119.1126,4.553 Z M117.6636,1.523 C117.4876,1.742 117.3116,1.918 117.1356,2.094 C116.4776,1.655 115.7746,1.259 115.0286,0.952 C115.9066,1.04 116.8296,1.259 117.6636,1.523 L117.6636,1.523 Z M116.6976,2.445 C116.3896,2.665 116.0816,2.84 115.7306,2.972 C115.3796,2.401 114.9406,1.83 114.5446,1.303 C115.2916,1.611 115.9946,2.006 116.6976,2.445 L116.6976,2.445 Z M113.9306,1.391 C114.4136,1.962 114.8086,2.533 115.2046,3.148 C114.7646,3.279 114.3696,3.367 113.9306,3.367 L113.9306,1.391 Z M113.9306,3.894 C114.4576,3.851 114.9846,3.763 115.5116,3.587 C115.9066,4.246 116.2136,4.904 116.5216,5.563 C115.6866,5.783 114.8086,5.915 113.9306,5.915 L113.9306,3.894 Z M113.4476,1.391 L113.4476,3.367 C113.0086,3.367 112.5686,3.279 112.1736,3.148 C112.5686,2.533 112.9646,1.962 113.4476,1.391 L113.4476,1.391 Z M111.6906,2.972 C111.3396,2.84 111.0316,2.665 110.7246,2.445 C111.3836,2.006 112.1296,1.611 112.8766,1.303 C112.4376,1.83 112.0416,2.401 111.6906,2.972 L111.6906,2.972 Z M112.3936,0.952 C111.6466,1.259 110.9446,1.655 110.2856,2.094 C110.0656,1.918 109.8906,1.742 109.7146,1.523 C110.5926,1.259 111.4716,1.04 112.3936,0.952 L112.3936,0.952 Z M120.9136,22.295 C119.2446,21.373 119.2446,20.143 119.3316,19.66 C119.4196,19.177 119.7276,19.397 119.9466,19.397 C121.0446,19.397 122.1866,19.089 123.5916,17.64 C125.1726,16.015 125.6996,12.414 123.2406,10.043 C120.6056,7.495 117.7946,7.935 115.9946,10.218 C115.6436,10.701 114.7206,11.008 113.9306,11.008 C112.7886,10.965 113.4916,11.887 113.4916,12.063 C113.4916,12.238 113.3156,12.37 113.2276,12.37 C112.8326,12.238 113.0086,12.853 113.0086,13.029 C113.0086,13.204 112.8326,13.292 112.7446,13.292 C112.2616,13.292 112.3936,13.732 112.3936,13.863 C112.3936,13.995 112.3496,14.17 112.2176,14.258 C112.0416,14.346 111.8666,14.741 111.8666,15.005 C111.8666,15.532 112.3496,15.883 113.1406,16.498 C113.9306,17.113 114.0616,17.684 114.0616,18.079 C114.0616,18.474 114.1056,19.133 114.2816,19.572 C114.5016,20.099 114.4576,21.065 113.3596,21.109 C111.9986,21.153 109.5826,22.251 109.3636,22.338 C108.5726,22.602 107.5626,22.69 106.7716,22.514 C106.3326,22.207 105.9376,21.899 105.5426,21.548 C105.3666,21.021 105.6746,20.406 105.9376,20.011 C106.3766,20.45 107.0796,20.45 107.4316,20.45 C107.8266,20.45 109.6706,20.187 109.9346,20.099 C110.1976,20.011 110.3296,20.055 110.4606,20.099 C111.1636,20.362 112.1296,20.45 112.5246,19.089 C112.9206,17.728 111.9986,18.123 111.8666,18.167 C111.7346,18.211 111.6026,18.211 111.6466,18.079 C111.8226,17.728 111.5596,17.772 111.4276,17.772 C111.0316,17.728 110.5486,18.123 110.3736,18.298 C110.1976,18.43 110.0656,18.43 109.9776,18.386 C109.4516,18.123 107.9576,18.518 107.4746,17.684 C107.5186,17.464 107.0796,14.127 106.8596,13.556 C106.7716,13.38 106.8156,13.16 106.9036,13.029 C107.2996,12.458 108.3526,13.073 108.9236,13.073 C109.6266,13.073 109.7146,12.765 109.8906,12.545 C110.0656,12.326 110.1976,12.458 110.2856,12.37 C110.4166,12.282 110.2856,12.107 110.3296,12.019 C110.3736,11.931 110.4166,11.975 110.5486,11.887 C110.6806,11.799 110.5486,11.58 110.5926,11.492 C110.7686,11.228 111.2076,11.448 110.9446,10.789 C110.8126,10.438 110.9886,10.043 111.2076,9.779 C111.5596,9.34 112.8326,7.539 110.5486,5.651 C108.3966,3.851 106.2016,3.982 104.7956,5.519 C103.3906,7.056 104.0936,9.296 104.2256,9.867 C104.3566,10.438 103.9616,11.008 103.4786,11.228 C103.0836,11.404 102.2056,12.019 101.5466,12.589 C101.6346,7.803 104.5766,3.587 109.0116,1.786 C109.1876,2.006 109.4076,2.27 109.6266,2.445 C109.1436,2.796 108.0456,3.763 108.0456,3.763 C108.0456,3.763 108.1776,3.807 108.3526,3.807 C108.4406,3.851 108.6606,3.894 108.6606,3.894 C108.6606,3.894 109.6266,3.06 110.0656,2.753 C110.4166,3.016 110.8126,3.235 111.2076,3.411 C110.9886,3.763 110.4606,4.816 110.4606,4.816 C110.4606,4.816 110.5926,4.904 110.6806,4.948 C110.8126,5.036 110.8566,5.08 110.8566,5.08 C110.8566,5.08 111.4716,3.982 111.6906,3.587 C112.1736,3.763 112.7006,3.851 113.2276,3.894 L113.2276,5.959 C112.9206,5.959 112.1736,5.915 111.8666,5.871 L111.6906,5.871 L111.7786,6.046 C111.8666,6.178 111.9106,6.266 111.9986,6.398 L112.0416,6.441 L112.0856,6.441 C112.3056,6.441 113.0086,6.485 113.2716,6.485 L113.2716,10.218 L113.7986,10.218 L113.7986,9.384 C114.5446,9.34 115.2046,9.296 115.9506,9.208 L115.9946,9.208 L116.6536,8.593 L116.3016,8.637 C115.5116,8.725 114.8086,8.769 114.1496,8.813 L113.7986,8.813 L113.7986,6.441 C114.7206,6.441 115.6866,6.31 116.6096,6.046 C116.8726,6.661 117.3116,8.154 117.3116,8.154 L117.7946,8.023 C117.7946,8.023 117.3116,6.529 117.0916,5.915 C117.8826,5.695 118.6286,5.343 119.3316,4.948 C119.9036,5.651 120.3856,6.441 120.8256,7.232 C120.4736,7.408 119.7716,7.627 119.7716,7.627 C120.2976,7.671 120.7376,7.803 120.7376,7.803 L121.0446,7.671 C121.0886,7.759 121.1766,7.979 121.1766,7.979 L121.8346,8.286 L121.7476,8.11 L121.4836,7.451 C122.1866,7.1 122.8886,6.705 123.5476,6.266 C124.8216,8.198 125.4806,10.482 125.4806,12.809 C125.6556,16.673 123.7676,20.143 120.9136,22.295 L120.9136,22.295 Z M130.6186,6.661 L130.4426,7.1 C129.9146,8.418 129.6966,11.36 129.8726,12.765 L130.0466,13.556 L130.1786,13.38 L130.3106,13.204 C131.3646,11.887 131.4086,10.13 131.2776,8.9 C131.1896,8.286 131.0576,7.671 130.8376,7.056 L130.7496,6.836 L130.6186,6.661 L130.6186,6.661 Z M127.1046,3.499 L127.1926,4.026 C127.4996,5.871 128.2906,7.451 129.3006,8.374 L129.5206,8.593 L129.6086,8.242 L129.6526,8.11 C129.9146,6.222 128.2476,4.509 127.4996,3.894 L127.3246,3.675 L127.1046,3.499 L127.1046,3.499 Z M103.3466,21.899 L103.3906,22.075 C103.6986,24.051 104.5326,26.686 107.8706,26.379 L108.0896,26.379 L108.0456,26.159 C107.8266,25.237 104.7516,22.602 103.6546,21.899 L103.3466,21.724 L103.3466,21.899 L103.3466,21.899 Z" id="Fill-1" fill="#000000" mask="url(#mask-2)"></path>
                    </g>
                    <g id="Group-6" transform="translate(0.000000, 8.618900)">
                        <mask id="mask-4" fill="white">
                            <use xlink:href="#path-3"></use>
                        </mask>
                        <g id="Clip-5"></g>
                        <path d="M159.9336,0.6084 L174.6396,16.0384 L174.6396,1.3974 L176.7416,1.3974 L176.7416,21.1594 L162.0356,5.7304 L162.0356,20.3044 L159.9336,20.3044 L159.9336,0.6084 Z M147.0666,1.0684 C141.6826,1.0684 137.2176,5.4664 137.2176,10.8514 C137.2176,16.2994 141.6826,20.6334 147.0666,20.6334 C152.4486,20.6334 156.9126,16.2994 156.9126,10.8514 C156.9126,5.4664 152.4486,1.0684 147.0666,1.0684 L147.0666,1.0684 Z M147.0666,3.0384 C151.3996,3.0384 154.8126,6.5834 154.8126,10.8514 C154.8126,15.1194 151.3986,18.6654 147.0666,18.6654 C142.7986,18.6654 139.3176,15.1204 139.3176,10.8514 C139.3176,6.5834 142.7316,3.0384 147.0666,3.0384 L147.0666,3.0384 Z M131.4396,20.3044 L129.3376,20.3044 L129.3376,3.3664 L124.7446,3.3664 L124.7446,1.3974 L136.0356,1.3974 L136.0356,3.3664 L131.4396,3.3664 L131.4396,20.3044 Z M119.6216,20.3044 L117.5216,20.3044 L117.5216,3.3664 L112.9896,3.3664 L112.9896,1.3974 L124.2846,1.3974 L124.2846,3.3664 L119.6216,3.3664 L119.6216,20.3044 Z M108.7246,20.3044 L110.8246,20.3044 L110.8246,1.3974 L108.7246,1.3974 L108.7246,20.3044 Z M93.5566,12.6234 C93.5566,14.0694 93.4926,15.6444 94.3446,16.8914 C95.1986,18.0064 96.7736,18.6654 98.1526,18.6654 C99.5316,18.6654 101.0416,18.0734 101.8946,17.0234 C102.8796,15.7754 102.8136,14.1334 102.8136,12.6234 L102.8136,1.3974 L104.9156,1.3974 L104.9156,13.2134 C104.9156,15.3154 104.7836,16.8904 103.2736,18.4654 C101.9606,19.8444 100.0566,20.6324 98.1526,20.6324 C96.3806,20.6324 94.6076,19.9764 93.2926,18.7284 C91.6526,17.1534 91.4566,15.3794 91.4566,13.2134 L91.4566,1.3974 L93.5566,1.3974 L93.5566,12.6234 Z M81.8056,15.8404 L87.1886,1.3974 L89.4206,1.3974 L81.8056,21.4224 L74.1236,1.3974 L76.3556,1.3974 L81.8056,15.8404 Z M62.7006,5.0724 C61.9776,3.7604 61.0596,3.0384 59.4836,3.0384 C57.7756,3.0384 56.3316,4.2194 56.3316,5.9924 C56.3316,7.5684 57.9726,8.3564 59.2866,8.9474 L60.5346,9.4724 C62.9636,10.5884 65.0636,11.7704 65.0636,14.7894 C65.0636,18.0734 62.4376,20.6334 59.1556,20.6334 C56.0686,20.6334 53.8376,18.6654 53.2466,15.7104 L55.2816,15.1844 C55.5436,17.0884 57.0546,18.6654 59.0896,18.6654 C61.1256,18.6654 62.9636,17.1544 62.9636,14.9884 C62.9636,12.7544 61.2566,12.0334 59.4846,11.2454 L58.3016,10.7204 C56.1356,9.7354 54.2316,8.6194 54.2316,5.9274 C54.2316,2.9724 56.7266,1.0694 59.4846,1.0694 C61.5846,1.0694 63.3576,2.1854 64.4076,4.0244 L62.7006,5.0724 Z M48.1896,20.3044 L50.2906,20.3044 L50.2906,1.3974 L48.1896,1.3974 L48.1896,20.3044 Z M33.0236,12.6234 C33.0236,14.0694 33.0236,15.6444 33.8776,16.8914 C34.7306,18.0064 36.3076,18.6654 37.6856,18.6654 C39.0646,18.6654 40.5086,18.0734 41.3626,17.0234 C42.4126,15.7754 42.3466,14.1334 42.3466,12.6234 L42.3466,1.3974 L44.4476,1.3974 L44.4476,13.2134 C44.4476,15.3154 44.2506,16.8904 42.7406,18.4654 C41.4936,19.8444 39.5896,20.6324 37.6856,20.6324 C35.9126,20.6324 34.0746,19.9764 32.8276,18.7284 C31.1196,17.1534 30.9226,15.3794 30.9226,13.2134 L30.9226,1.3974 L33.0236,1.3974 L33.0236,12.6234 Z M18.3176,1.0684 C12.9336,1.0684 8.4696,5.4664 8.4696,10.8514 C8.4696,16.2994 12.9336,20.6334 18.3176,20.6334 C23.7016,20.6334 28.1646,16.2994 28.1646,10.8514 C28.1646,5.4664 23.7016,1.0684 18.3176,1.0684 L18.3176,1.0684 Z M18.3176,3.0384 C22.6516,3.0384 25.9986,6.5834 25.9986,10.8514 C25.9986,15.1194 22.5846,18.6654 18.3176,18.6654 C13.9846,18.6654 10.5706,15.1204 10.5706,10.8514 C10.5706,6.5834 13.9846,3.0384 18.3176,3.0384 L18.3176,3.0384 Z M2.1006,18.3364 L7.2876,18.3364 L7.2876,20.3044 L-0.0004,20.3044 L-0.0004,1.3974 L2.1006,1.3974 L2.1006,18.3364 Z" id="Fill-4" fill="#000000" mask="url(#mask-4)"></path>
                    </g>
                    <polygon id="Fill-7" fill="#000000" points="189.5494 21.1917 189.5494 23.6447 192.2984 23.6447 192.2984 24.4987 189.5494 24.4987 189.5494 28.5947 188.6294 28.5947 188.6294 20.3377 192.3854 20.3377 192.3854 21.1917"></polygon>
                    <path d="M193.9737,24.4661 C193.9737,26.3281 195.4857,27.8831 197.3577,27.8831 C199.2307,27.8831 200.7427,26.3281 200.7427,24.4661 C200.7427,22.5931 199.2527,21.0491 197.3577,21.0491 C195.4637,21.0491 193.9737,22.5931 193.9737,24.4661 M201.6617,24.4771 C201.6617,26.8541 199.7127,28.7371 197.3577,28.7371 C195.0037,28.7371 193.0537,26.8541 193.0537,24.4771 C193.0537,22.1121 195.0037,20.1951 197.3577,20.1951 C199.7127,20.1951 201.6617,22.1121 201.6617,24.4771" id="Fill-9" fill="#000000"></path>
                    <path d="M203.4361,24.1595 L203.7211,24.1595 C204.7611,24.1595 205.8121,23.9625 205.8121,22.6805 C205.8121,21.3235 204.8161,21.1915 203.7101,21.1915 L203.4361,21.1915 L203.4361,24.1595 Z M203.4361,28.5955 L202.5161,28.5955 L202.5161,20.3375 L203.7101,20.3375 C205.2761,20.3375 206.7321,20.7535 206.7321,22.6155 C206.7321,23.8855 205.9331,24.7845 204.6631,24.8935 L207.2911,28.5955 L206.1631,28.5955 L203.6661,24.9705 L203.4361,24.9705 L203.4361,28.5955 Z" id="Fill-11" fill="#000000"></path>
                </g>
            </g>
        </g>
    </g>
</svg>